<mxfile host="app.diagrams.net" modified="2024-02-15T07:58:39.728Z" agent="Mozilla/5.0 (Windows NT 10.0; Win64; x64) AppleWebKit/537.36 (KHTML, like Gecko) Chrome/121.0.0.0 Safari/537.36 Edg/121.0.0.0" etag="M3GgXydxGlK_Q5FPLdvs" version="23.1.4" type="device">
  <diagram name="Page-1" id="58cdce13-f638-feb5-8d6f-7d28b1aa9fa0">
    <mxGraphModel dx="2573" dy="800" grid="1" gridSize="10" guides="1" tooltips="1" connect="1" arrows="1" fold="1" page="1" pageScale="1" pageWidth="1100" pageHeight="850" background="none" math="0" shadow="0">
      <root>
        <mxCell id="0" />
        <mxCell id="1" parent="0" />
        <mxCell id="hfdhkhP_n_KdrvxvgrYl-9" value="" style="edgeStyle=orthogonalEdgeStyle;rounded=0;orthogonalLoop=1;jettySize=auto;html=1;startArrow=ERmany;startFill=0;endArrow=ERmany;endFill=0;" edge="1" parent="1" source="xs8RerY9kMlVKunF-I39-2" target="xs8RerY9kMlVKunF-I39-3">
          <mxGeometry relative="1" as="geometry" />
        </mxCell>
        <mxCell id="xs8RerY9kMlVKunF-I39-2" value="&lt;p style=&quot;margin:0px;margin-top:4px;text-align:center;&quot;&gt;&lt;b&gt;Сотрудники&lt;/b&gt;&lt;/p&gt;&lt;hr size=&quot;1&quot;&gt;&lt;p style=&quot;margin:0px;margin-left:4px;&quot;&gt;&lt;/p&gt;&lt;p style=&quot;border-color: var(--border-color); margin: 4px 0px 0px; text-align: center;&quot;&gt;&lt;/p&gt;&lt;p style=&quot;border-color: var(--border-color); margin: 0px 0px 0px 4px;&quot;&gt;#Код&lt;/p&gt;&lt;p style=&quot;border-color: var(--border-color); margin: 0px 0px 0px 4px;&quot;&gt;*Должность&lt;/p&gt;&lt;p style=&quot;border-color: var(--border-color); margin: 0px 0px 0px 4px;&quot;&gt;*ФИО&lt;/p&gt;&lt;p style=&quot;border-color: var(--border-color); margin: 0px 0px 0px 4px;&quot;&gt;&lt;span style=&quot;border-color: var(--border-color); background-color: initial;&quot;&gt;*Контакты&lt;/span&gt;&lt;/p&gt;&lt;p style=&quot;border-color: var(--border-color); margin: 0px 0px 0px 4px;&quot;&gt;&lt;span style=&quot;border-color: var(--border-color); background-color: initial;&quot;&gt;*Имя пользователя&lt;/span&gt;&lt;/p&gt;&lt;p style=&quot;border-color: var(--border-color); margin: 0px 0px 0px 4px;&quot;&gt;&lt;span style=&quot;border-color: var(--border-color); background-color: initial;&quot;&gt;*Пароль&lt;/span&gt;&lt;/p&gt;&lt;p style=&quot;border-color: var(--border-color); margin: 0px 0px 0px 4px;&quot;&gt;оПаспортные данные&lt;/p&gt;" style="verticalAlign=top;align=left;overflow=fill;fontSize=12;fontFamily=Helvetica;html=1;rounded=0;shadow=0;comic=0;labelBackgroundColor=none;strokeWidth=1;fillColor=#FFFFC0;" parent="1" vertex="1">
          <mxGeometry x="810" y="50" width="190" height="159" as="geometry" />
        </mxCell>
        <mxCell id="xs8RerY9kMlVKunF-I39-3" value="&lt;p style=&quot;margin:0px;margin-top:4px;text-align:center;&quot;&gt;&lt;b&gt;Администратор&lt;/b&gt;&lt;/p&gt;&lt;hr size=&quot;1&quot;&gt;&lt;p style=&quot;margin:0px;margin-left:4px;&quot;&gt;#Код&lt;/p&gt;&lt;p style=&quot;margin:0px;margin-left:4px;&quot;&gt;&lt;span style=&quot;background-color: initial;&quot;&gt;*ФИО&lt;/span&gt;&lt;/p&gt;&lt;p style=&quot;margin:0px;margin-left:4px;&quot;&gt;&lt;span style=&quot;background-color: initial;&quot;&gt;*Контакты&lt;/span&gt;&lt;/p&gt;&lt;p style=&quot;margin:0px;margin-left:4px;&quot;&gt;&lt;span style=&quot;background-color: initial;&quot;&gt;*Имя пользователя&lt;/span&gt;&lt;/p&gt;&lt;p style=&quot;margin:0px;margin-left:4px;&quot;&gt;&lt;span style=&quot;background-color: initial;&quot;&gt;*Пароль&lt;/span&gt;&lt;/p&gt;&lt;p style=&quot;margin:0px;margin-left:4px;&quot;&gt;оПаспортные данные&lt;/p&gt;&lt;p style=&quot;margin:0px;margin-left:4px;&quot;&gt;&lt;/p&gt;" style="verticalAlign=top;align=left;overflow=fill;fontSize=12;fontFamily=Helvetica;html=1;rounded=0;shadow=0;comic=0;labelBackgroundColor=none;strokeWidth=1;fillColor=#FFFFC0;strokeColor=#000000;gradientColor=none;" parent="1" vertex="1">
          <mxGeometry x="810" y="315" width="190" height="160" as="geometry" />
        </mxCell>
        <mxCell id="hfdhkhP_n_KdrvxvgrYl-5" style="edgeStyle=orthogonalEdgeStyle;rounded=0;orthogonalLoop=1;jettySize=auto;html=1;exitX=1;exitY=0.5;exitDx=0;exitDy=0;entryX=0;entryY=0.5;entryDx=0;entryDy=0;endArrow=none;endFill=0;" edge="1" parent="1" source="xs8RerY9kMlVKunF-I39-4" target="xs8RerY9kMlVKunF-I39-11">
          <mxGeometry relative="1" as="geometry" />
        </mxCell>
        <mxCell id="xs8RerY9kMlVKunF-I39-4" value="&lt;p style=&quot;margin:0px;margin-top:4px;text-align:center;&quot;&gt;&lt;b&gt;Бронирование&lt;/b&gt;&lt;/p&gt;&lt;hr size=&quot;1&quot;&gt;&lt;p style=&quot;margin:0px;margin-left:4px;&quot;&gt;#Код&lt;br&gt;*Итоговая стоимость&lt;/p&gt;&lt;p style=&quot;margin:0px;margin-left:4px;&quot;&gt;*Дата&lt;/p&gt;&lt;p style=&quot;margin:0px;margin-left:4px;&quot;&gt;*Код клиента&lt;/p&gt;&lt;p style=&quot;margin:0px;margin-left:4px;&quot;&gt;*Код сотрудника&lt;/p&gt;&lt;p style=&quot;margin:0px;margin-left:4px;&quot;&gt;оКонтакты клиента&lt;/p&gt;&lt;p style=&quot;margin:0px;margin-left:4px;&quot;&gt;оКонтакты сотрудника&lt;/p&gt;&lt;p style=&quot;margin:0px;margin-left:4px;&quot;&gt;&lt;br&gt;&lt;/p&gt;" style="verticalAlign=top;align=left;overflow=fill;fontSize=12;fontFamily=Helvetica;html=1;rounded=0;shadow=0;comic=0;labelBackgroundColor=none;strokeWidth=1;fillColor=#FFFFC0;" parent="1" vertex="1">
          <mxGeometry x="140" y="135" width="190" height="160" as="geometry" />
        </mxCell>
        <mxCell id="hfdhkhP_n_KdrvxvgrYl-6" style="edgeStyle=orthogonalEdgeStyle;rounded=0;orthogonalLoop=1;jettySize=auto;html=1;exitX=1;exitY=0.5;exitDx=0;exitDy=0;entryX=0;entryY=0.5;entryDx=0;entryDy=0;endArrow=ERmany;endFill=0;" edge="1" parent="1" source="xs8RerY9kMlVKunF-I39-5" target="xs8RerY9kMlVKunF-I39-4">
          <mxGeometry relative="1" as="geometry" />
        </mxCell>
        <mxCell id="xs8RerY9kMlVKunF-I39-5" value="&lt;p style=&quot;margin:0px;margin-top:4px;text-align:center;&quot;&gt;&lt;b&gt;Номер&lt;/b&gt;&lt;/p&gt;&lt;hr size=&quot;1&quot;&gt;&lt;p style=&quot;margin:0px;margin-left:4px;&quot;&gt;#Код&lt;/p&gt;&lt;p style=&quot;margin:0px;margin-left:4px;&quot;&gt;*Категория&lt;/p&gt;&lt;p style=&quot;margin:0px;margin-left:4px;&quot;&gt;*Статус&amp;nbsp;&lt;br&gt;&lt;/p&gt;&lt;p style=&quot;margin:0px;margin-left:4px;&quot;&gt;*Готовность номера&lt;/p&gt;&lt;p style=&quot;margin:0px;margin-left:4px;&quot;&gt;&lt;br&gt;&lt;/p&gt;&lt;p style=&quot;margin:0px;margin-left:4px;&quot;&gt;&lt;br&gt;&lt;/p&gt;" style="verticalAlign=top;align=left;overflow=fill;fontSize=12;fontFamily=Helvetica;html=1;rounded=0;shadow=0;comic=0;labelBackgroundColor=none;strokeWidth=1;fillColor=#FFFFC0;" parent="1" vertex="1">
          <mxGeometry x="-100" y="340" width="190" height="110" as="geometry" />
        </mxCell>
        <mxCell id="xs8RerY9kMlVKunF-I39-13" style="edgeStyle=orthogonalEdgeStyle;rounded=0;orthogonalLoop=1;jettySize=auto;html=1;exitX=0.5;exitY=1;exitDx=0;exitDy=0;entryX=0.5;entryY=0;entryDx=0;entryDy=0;strokeColor=none;" parent="1" source="xs8RerY9kMlVKunF-I39-6" target="xs8RerY9kMlVKunF-I39-5" edge="1">
          <mxGeometry relative="1" as="geometry" />
        </mxCell>
        <mxCell id="hfdhkhP_n_KdrvxvgrYl-3" style="edgeStyle=orthogonalEdgeStyle;rounded=0;orthogonalLoop=1;jettySize=auto;html=1;exitX=1;exitY=0.25;exitDx=0;exitDy=0;entryX=0;entryY=0.25;entryDx=0;entryDy=0;endArrow=ERmany;endFill=0;" edge="1" parent="1" source="xs8RerY9kMlVKunF-I39-6" target="xs8RerY9kMlVKunF-I39-4">
          <mxGeometry relative="1" as="geometry" />
        </mxCell>
        <mxCell id="xs8RerY9kMlVKunF-I39-6" value="&lt;p style=&quot;margin:0px;margin-top:4px;text-align:center;&quot;&gt;&lt;b&gt;Клиенты&lt;/b&gt;&lt;/p&gt;&lt;hr size=&quot;1&quot;&gt;&lt;p style=&quot;margin:0px;margin-left:4px;&quot;&gt;#Код&lt;/p&gt;&lt;p style=&quot;margin:0px;margin-left:4px;&quot;&gt;*ФИО&lt;/p&gt;&lt;p style=&quot;margin:0px;margin-left:4px;&quot;&gt;*Возраст&lt;/p&gt;&lt;p style=&quot;margin:0px;margin-left:4px;&quot;&gt;*Паспортные данные&lt;/p&gt;&lt;p style=&quot;margin:0px;margin-left:4px;&quot;&gt;*Контакты:&lt;/p&gt;&lt;p style=&quot;margin:0px;margin-left:4px;&quot;&gt;*История бронирования&lt;/p&gt;&lt;p style=&quot;margin:0px;margin-left:4px;&quot;&gt;&lt;br&gt;&lt;/p&gt;" style="verticalAlign=top;align=left;overflow=fill;fontSize=12;fontFamily=Helvetica;html=1;rounded=0;shadow=0;comic=0;labelBackgroundColor=none;strokeWidth=1;fillColor=#FFFFC0;" parent="1" vertex="1">
          <mxGeometry x="-190" y="140" width="190" height="140" as="geometry" />
        </mxCell>
        <mxCell id="hfdhkhP_n_KdrvxvgrYl-1" style="edgeStyle=orthogonalEdgeStyle;rounded=0;orthogonalLoop=1;jettySize=auto;html=1;exitX=1;exitY=0.5;exitDx=0;exitDy=0;entryX=0;entryY=0.5;entryDx=0;entryDy=0;endArrow=ERmany;endFill=0;" edge="1" parent="1" source="xs8RerY9kMlVKunF-I39-10" target="xs8RerY9kMlVKunF-I39-5">
          <mxGeometry relative="1" as="geometry" />
        </mxCell>
        <mxCell id="xs8RerY9kMlVKunF-I39-10" value="&lt;p style=&quot;margin:0px;margin-top:4px;text-align:center;&quot;&gt;&lt;b&gt;Категория номера&lt;/b&gt;&lt;/p&gt;&lt;hr size=&quot;1&quot;&gt;&lt;p style=&quot;margin:0px;margin-left:4px;&quot;&gt;#КодКатегории&lt;/p&gt;&lt;p style=&quot;margin:0px;margin-left:4px;&quot;&gt;*НаименованиеКатегории&lt;/p&gt;&lt;p style=&quot;margin:0px;margin-left:4px;&quot;&gt;*Стоимость&lt;/p&gt;&lt;p style=&quot;margin:0px;margin-left:4px;&quot;&gt;*Вместимость&lt;/p&gt;&lt;p style=&quot;margin:0px;margin-left:4px;&quot;&gt;&lt;br&gt;&lt;/p&gt;&lt;p style=&quot;margin:0px;margin-left:4px;&quot;&gt;&lt;br&gt;&lt;/p&gt;&lt;p style=&quot;margin:0px;margin-left:4px;&quot;&gt;&lt;br&gt;&lt;/p&gt;" style="verticalAlign=top;align=left;overflow=fill;fontSize=12;fontFamily=Helvetica;html=1;rounded=0;shadow=0;comic=0;labelBackgroundColor=none;strokeWidth=1;fillColor=#FFFFC0;" parent="1" vertex="1">
          <mxGeometry x="-330" y="520" width="190" height="110" as="geometry" />
        </mxCell>
        <mxCell id="xs8RerY9kMlVKunF-I39-11" value="&lt;p style=&quot;margin:0px;margin-top:4px;text-align:center;&quot;&gt;&lt;b&gt;Приходная накладная&lt;/b&gt;&lt;br&gt;&lt;/p&gt;&lt;hr size=&quot;1&quot;&gt;&lt;p style=&quot;margin:0px;margin-left:4px;&quot;&gt;&lt;/p&gt;&lt;p style=&quot;margin:0px;margin-left:4px;&quot;&gt;#Номер&lt;/p&gt;&lt;p style=&quot;margin:0px;margin-left:4px;&quot;&gt;*Дата&lt;/p&gt;&lt;p style=&quot;margin:0px;margin-left:4px;&quot;&gt;*КодКлиента&lt;/p&gt;&lt;p style=&quot;margin:0px;margin-left:4px;&quot;&gt;*КодСотрудника&lt;/p&gt;&lt;p style=&quot;margin:0px;margin-left:4px;&quot;&gt;*ИтоговаяСтоимость&lt;/p&gt;" style="verticalAlign=top;align=left;overflow=fill;fontSize=12;fontFamily=Helvetica;html=1;rounded=0;shadow=0;comic=0;labelBackgroundColor=none;strokeWidth=1;fillColor=#FFFFC0;" parent="1" vertex="1">
          <mxGeometry x="390" y="320" width="190" height="110" as="geometry" />
        </mxCell>
        <mxCell id="hfdhkhP_n_KdrvxvgrYl-11" style="edgeStyle=orthogonalEdgeStyle;rounded=0;orthogonalLoop=1;jettySize=auto;html=1;entryX=0.5;entryY=1;entryDx=0;entryDy=0;endArrow=none;endFill=0;" edge="1" parent="1" source="hfdhkhP_n_KdrvxvgrYl-10" target="xs8RerY9kMlVKunF-I39-2">
          <mxGeometry relative="1" as="geometry" />
        </mxCell>
        <mxCell id="hfdhkhP_n_KdrvxvgrYl-13" style="edgeStyle=orthogonalEdgeStyle;rounded=0;orthogonalLoop=1;jettySize=auto;html=1;entryX=1;entryY=0.25;entryDx=0;entryDy=0;endArrow=ERmany;endFill=0;" edge="1" parent="1" source="hfdhkhP_n_KdrvxvgrYl-10" target="xs8RerY9kMlVKunF-I39-4">
          <mxGeometry relative="1" as="geometry" />
        </mxCell>
        <mxCell id="hfdhkhP_n_KdrvxvgrYl-10" value="&lt;p style=&quot;margin:0px;margin-top:4px;text-align:center;&quot;&gt;&lt;b&gt;Персонал&lt;/b&gt;&lt;/p&gt;&lt;p style=&quot;border-color: var(--border-color); margin: 0px 0px 0px 4px;&quot;&gt;&lt;br&gt;&lt;/p&gt;" style="verticalAlign=top;align=left;overflow=fill;fontSize=12;fontFamily=Helvetica;html=1;rounded=0;shadow=0;comic=0;labelBackgroundColor=none;strokeWidth=1;fillColor=#FFFFC0;" vertex="1" parent="1">
          <mxGeometry x="630" y="250" width="120" height="30" as="geometry" />
        </mxCell>
      </root>
    </mxGraphModel>
  </diagram>
</mxfile>
